# xmcd
#
# Track frame offsets:
#	150
#	15965
#	30816
#	50878
#	67570
#	84349
#	109599
#	129473
#	143987
#	166110
#
# Disc length: 2536 seconds
#
# Revision: 0
# Processed by: cddbd v1.5.2PL0 Copyright (c) Steve Scherf et al.
# Submitted via: EasyCDDAExtractor 16.1.0.1
#
DISCID=6b09e60a
DTITLE=The Booth Brothers - Still
DYEAR=2014
DGENRE=Gospel
TTITLE0=Faith Keeps Walking
TTITLE1=Happy Rhythm
TTITLE2=Still
TTITLE3=Dirt on my Hands
TTITLE4=I am the Word
TTITLE5=The Touch of the Master's Hand
TTITLE6=Whenever I Speak His Name
TTITLE7=Down by the River
TTITLE8=Wildflower (Vicki's Song)
TTITLE9=Jesus Saves
EXTD=
EXTT0=
EXTT1=
EXTT2=
EXTT3=
EXTT4=
EXTT5=
EXTT6=
EXTT7=
EXTT8=
EXTT9=
PLAYORDER=
